<?xml version="1.0" encoding="UTF-8" standalone="no"?>
<!-- Created with Inkscape (http://www.inkscape.org/) -->
<svg xmlns="http://www.w3.org/2000/svg" width="74.7" height="95.1" version="1.1">
  <g transform="translate(-599.49711,-446.85088)">
    <g
       transform="translate(566.53482,444.00742)"
       style="font-size:100px;font-style:normal;font-variant:normal;font-weight:normal;font-stretch:normal;fill:#000000;fill-opacity:1;stroke:none;font-family:Droid Serif;-inkscape-font-specification:Droid Serif"
       id="text4545">
      <path
         d="m 107.66229,90.74346 c -8e-5,4.799983 -2.26674,7.199981 -6.8,7.2 h -61.1 c -4.533338,-1.9e-5 -6.800002,-2.400017 -6.8,-7.2 v -80.7 c -2e-6,-4.7999263 2.266662,-7.1999239 6.8,-7.1999999 h 61.1 c 4.53326,7.6e-5 6.79992,2.4000736 6.8,7.1999999 v 80.7"
         id="path8" />
      <path
         d="m 105.96229,90.74346 v -80.7 c -8e-5,-3.6665941 -1.70007,-5.4999256 -5.1,-5.4999999 h -61.1 c -3.400006,7.43e-5 -5.100004,1.8334058 -5.1,5.4999999 v 80.7 c -4e-6,3.733318 1.699994,5.599983 5.1,5.6 h 61.1 c 3.39993,-1.7e-5 5.09992,-1.866682 5.1,-5.6"
         id="path9"
         style="fill:#ffffff" />
      <g
         id="g27"
         transform="matrix(0.475,0,0,0.475,119.00339,-160.03154)">
&#10;			<path
   class="st7"
   d="m -104.5,530.2 c -11.2,-0.1 -21.7,-2.9 -31.4,-8.7 -7.8,-4.7 -14.3,-10.8 -19.3,-18.3 -5,-7.4 -8.2,-15.6 -9.6,-24.5 -0.6,-3.6 -0.9,-7.2 -0.8,-10.8 0.1,-5.9 1,-11.6 2.8,-17.2 2.2,-7 5.6,-13.4 10,-19.2 5.1,-6.7 11.3,-12 18.7,-16 6.7,-3.7 13.8,-6 21.4,-7.1 5.4,-0.7 10.8,-0.8 16.2,0.1 0.5,0.1 0.5,0.2 0.5,0.6 -0.3,2 -0.5,3.9 -0.8,5.9 0,0.4 -0.2,0.5 -0.7,0.5 -5.2,-0.3 -10.4,-0.5 -15.5,0.2 -4.6,0.6 -8.9,2.1 -13.2,3.9 -6.7,2.9 -12.5,7 -17.5,12.3 -6.3,6.7 -10.6,14.5 -12.9,23.4 -1.3,5 -2,10.1 -1.8,15.2 0.3,7.6 2,14.8 5.3,21.7 2.5,5.2 5.8,9.9 9.7,14 4.9,5.2 10.7,9.2 17.3,12.1 5.1,2.2 10.4,3.6 16,4.2 9.8,1 19.1,-0.6 28,-4.6 6.3,-2.8 11.8,-6.8 16.6,-11.9 7.5,-7.9 12.2,-17.2 14,-27.8 1,-5.8 1.1,-11.7 0.2,-17.6 -1.1,-7.2 -3.6,-13.9 -7.4,-20.1 -0.6,-1 -0.6,-1.1 0.4,-1.7 1.4,-1 2.9,-2 4.3,-3 0.5,-0.3 0.7,-0.3 1.1,0.2 4.7,7.1 7.6,14.9 8.9,23.2 0.5,2.8 0.7,5.7 0.7,8.5 0.2,9.2 -1.6,18 -5.3,26.4 -2.5,5.6 -5.9,10.7 -10,15.3 -8.9,10 -19.8,16.4 -32.9,19.3 -4.3,1.1 -8.7,1.5 -13,1.5 z"
   id="path4"
   style="fill:#2a3b92" />
&#10;			<path
   class="st8"
   d="m -134.9,460.2 c 2.1,1.3 4.2,2 6.5,2.4 3.2,0.5 6.3,-0.2 9.4,-0.8 2.9,-0.6 5.8,-1.2 8.8,-1.5 4.6,-0.4 8.9,0.3 12.6,3.2 3,2.4 4.2,5.6 3.6,9.5 -0.2,1.2 -0.7,1.7 -1.5,1.8 -0.8,0.1 -1.8,-0.5 -2.2,-1.4 -0.4,-0.8 -0.5,-1.7 -0.6,-2.5 -0.3,-3 -2,-4.9 -4.8,-5.9 -2.5,-0.9 -5.1,-1.1 -7.9,-0.4 1.8,1.1 3.4,2 5.1,3 1.5,0.9 2.7,2 3.2,3.7 0.3,1 0.2,2 -0.6,2.8 -0.8,0.8 -1.8,0.9 -2.8,0.6 -2,-0.5 -3.5,-1.8 -5,-3.1 -1.7,-1.5 -3.3,-3.2 -4.6,-5.2 -0.3,-0.5 -0.7,-0.7 -1.3,-0.5 -1.3,0.4 -2.7,0.7 -4,1 -0.5,0.1 -0.5,0.3 -0.3,0.7 0.8,1.6 1.9,3.1 3.1,4.5 2.2,2.5 4.8,4.4 7.4,6.3 0.9,0.7 1.8,1.4 2.6,2.1 0.9,0.8 1,1.4 0.6,2.3 -0.6,1.1 -1.5,1.6 -2.6,1.4 -1,-0.2 -1.9,-0.7 -2.7,-1.3 -3,-2 -6,-4.1 -8.6,-6.8 -2.1,-2.2 -3.9,-4.6 -4.7,-7.6 -0.2,-0.8 -0.7,-1.2 -1.5,-1.3 -2.3,-0.2 -4.6,-0.6 -6.8,-1.4 -3.7,-1.3 -6.5,-3.8 -8.9,-6.8 -1,-1.2 -2,-2.5 -2.6,-4 -1.6,-3.8 -1.2,-7.5 1.1,-10.9 2.6,-4.1 5.4,-8.1 8.1,-12.1 0.3,-0.5 0.7,-0.9 1.3,-1 1,-0.2 1.4,0 1.5,1 0.2,1.7 -0.2,3.2 -1.1,4.7 -1.8,2.9 -3.8,5.7 -5.4,8.7 -1.3,2.6 -1.9,5.2 -0.6,8 0.3,0.6 0.6,1.1 1,1.6 0.2,0.3 0.5,0.4 0.9,0.4 2.9,-0.2 5.7,-0.7 8.2,-2.5 1.7,-1.2 2.8,-2.9 3.7,-4.8 0.8,-1.8 1.5,-3.6 1.8,-5.5 0.5,-2.7 2.4,-4.5 4.5,-6 4.3,-3.1 8.9,-5.8 13.6,-8.2 4.6,-2.3 9.5,-3.9 14.7,-4.1 0.2,0 0.4,0 0.6,0 1.8,0.2 2,0.6 1.2,2.2 -0.7,1.4 -1.9,2.3 -3.4,2.7 -3.1,0.8 -6.2,1.6 -9.1,2.9 -4.7,1.9 -8.9,4.7 -12.9,7.8 -1.9,1.4 -3.5,3.1 -4.6,5.2 -0.6,1.2 -1.1,2.4 -1.7,3.6 -1.1,2 -2.5,3.8 -3.7,5.6 -0.3,0.5 -0.4,0.7 0.2,1 1.2,0.5 2.4,1.2 3.5,1.8 1.2,0.6 1.2,1.6 0.2,2.5 -2.1,1.8 -4.4,1.6 -6.4,0.3 -2.3,-1.1 -4,-0.4 -6.1,0.3 z"
   id="path5"
   style="fill:#038249" />
&#10;			<path
   class="st8"
   d="m -84.6,442.2 c 4.9,0 9,1.5 12.3,5 0.7,0.7 0.8,1.3 0.3,2.3 -1,1.9 -2.6,3.3 -4.1,4.7 -2.4,2.2 -5.4,3.7 -8.2,5.4 -0.7,0.5 -1.4,1 -2.1,1.5 -0.5,0.3 -0.6,0.8 -0.5,1.4 0.5,1.8 0.4,1.8 2.3,1.3 3.2,-0.9 6.4,-2 9.2,-3.9 1.8,-1.2 3.2,-3 4.5,-4.7 2.4,-3.2 5.2,-5.9 8.1,-8.5 0.3,-0.3 0.7,-0.5 1.1,-0.6 0.4,-0.1 0.9,-0.3 1.2,0.2 0.3,0.5 0.5,0.9 0.3,1.5 -0.6,1.6 -1.7,2.9 -2.8,4.1 -3.1,3.3 -6.1,6.6 -8.7,10.3 -1.2,1.7 -3,2.6 -4.9,3.1 -2.8,0.7 -5.6,1.5 -8.4,2.2 -0.7,0.2 -0.8,0.5 -0.8,1.1 0.1,2.3 0,4.5 -0.5,6.8 -0.7,2.7 -1.6,5.3 -3.8,7.1 -2.9,2.4 -6.1,2.3 -9.4,0.9 -1.6,-0.7 -3,-1.7 -4.2,-3.1 -0.6,-0.7 -0.9,-1.5 -0.6,-2.5 0.3,-1.1 1.1,-1.4 2.1,-1 1.4,0.6 2.6,1.6 3.9,2.3 2.6,1.4 5.3,0.7 6.6,-1.8 0.6,-1.1 1,-2.3 1.1,-3.5 0.3,-3.3 -0.3,-6.4 -1.2,-9.5 -1.1,-3.7 -3.8,-5.6 -7.5,-6.4 -2.6,-0.5 -5.2,-0.2 -7.9,-0.1 -3.3,0.2 -6.6,0.4 -9.6,-1.2 -1,-0.5 -1.5,-1.2 -1.2,-2 0.1,-0.3 0.2,-0.5 0.5,-0.2 1.1,1 2.5,0.9 3.8,0.8 4.5,-0.5 9.1,-1.1 13.6,-1.3 3.6,-0.2 6.8,0.5 9.7,2.8 0.1,0.1 0.3,0.2 0.4,0.3 1.2,1.1 1.2,1.1 2.5,0.2 1.9,-1.3 3.8,-2.6 5.7,-3.9 0.6,-0.4 1.3,-0.9 1.2,-1.7 -0.1,-0.9 -1,-1 -1.7,-1.1 -2.6,-0.7 -5.2,-0.3 -7.8,0.2 -2,0.4 -3.8,1.3 -5.8,1.7 -1.3,0.3 -1.6,0 -1.5,-1.4 0.1,-3.8 2.4,-6 5.7,-7.4 2.2,-1.1 4.7,-1.4 7.1,-1.4 z"
   id="path6"
   style="fill:#038249" />
&#10;			<path
   class="st8"
   d="m -149.7,469.1 c 0,1.6 0.2,3.2 0.4,4.8 0.1,0.6 0.2,1.3 -0.5,1.7 -0.7,0.4 -1.4,0.1 -1.9,-0.3 -1.7,-1.2 -2.7,-2.8 -3.1,-4.8 -0.7,-3.4 -0.4,-6.7 1.1,-9.9 1,-2.2 2.7,-3.2 4.8,-2.7 0.8,0.2 1.2,0.7 1.2,1.5 0,0.7 -0.1,1.3 -0.3,1.9 -0.1,0.3 -0.1,0.6 0.3,0.7 2.7,0.8 4.5,2.8 6.2,4.9 0.6,0.7 1.2,1.4 1.7,2.2 0.9,1.1 2,1.7 3.5,1.7 1.9,0 3.7,-0.1 5.6,0.5 2.7,0.9 4.1,2.5 4,5.3 -0.1,1.7 0.6,2.5 2,3.2 3.9,1.9 7.1,4.7 10.1,7.8 0.5,0.5 0.8,0.5 1.5,0.3 2.3,-0.7 4.4,-0.3 6.4,0.9 0.9,0.5 1,1.1 0.5,2 -0.7,1.1 -1.8,1.5 -2.9,2 -1.9,0.7 -3.9,1 -5.8,1.2 -3.1,0.4 -6.2,0.8 -9.4,1.1 -2.9,0.2 -5.5,-0.8 -7.3,-3.2 -0.4,-0.5 -0.8,-1.2 -0.5,-1.7 0.2,-0.4 1,-0.3 1.5,-0.2 1.9,0.2 3.7,0.5 5.6,0.7 1.6,0.2 3.2,-0.2 4.8,-0.5 0.3,0 0.5,-0.2 0.2,-0.5 -2.4,-2.3 -4.9,-4.4 -8,-5.7 -1.8,-0.7 -3.5,-0.5 -5.2,0.2 -1.8,0.8 -3.5,1.5 -5.3,2.3 -2.8,1.2 -5.4,0.9 -7.6,-1.2 -1.6,-1.5 -3.6,-2.6 -5.4,-3.8 -0.4,-0.3 -0.8,-0.6 -1.2,-1 -0.6,-0.6 -0.4,-1.5 0.3,-1.7 2.2,-0.8 4.3,-1.2 6.5,-0.1 1.1,0.6 1.9,1.5 2.8,2.4 1.2,1.2 1.3,1.2 2.6,0.4 2.5,-1.6 5.2,-2.5 8.1,-3 0.7,-0.1 0.8,-0.3 0.6,-0.9 -0.2,-0.7 -0.4,-1.4 -0.6,-2.1 -0.2,-0.7 -0.7,-1 -1.4,-0.8 -1,0.2 -1.9,0.4 -2.9,0.7 -1.7,0.4 -3.2,-0.1 -4.6,-1.3 -1.6,-1.4 -2.8,-3.2 -3.8,-5.1 -0.8,-1.5 -2,-2.6 -3.8,-2.9 -0.5,-0.1 -0.7,0 -0.7,0.5 0,0.7 -0.1,1.6 -0.1,2.5 z"
   id="path7"
   style="fill:#038249" />
&#10;			<path
   class="st8"
   d="m -118.2,503.1 c 0.9,1.1 2.1,1.8 3.3,2.5 1.8,1 3.7,1.8 5.5,2.8 0.3,0.1 0.5,0.1 0.7,-0.1 0.2,-0.2 0.5,-0.5 0.7,-0.7 0.5,-0.4 1.1,-0.5 1.6,-0.2 0.6,0.3 0.9,0.7 1,1.4 0,0.5 -0.1,0.9 -0.2,1.4 -0.4,1.8 0.1,2.8 1.8,3.5 1.7,0.7 1.7,0.7 2,-1.1 0.2,-1.4 0.3,-2.9 0.9,-4.3 0.3,-0.8 0.8,-1.3 1.6,-1.3 0.9,0 1.4,0.5 1.8,1.3 0.7,1.7 0.5,3.4 0.3,5.1 0,0.1 0,0.2 -0.1,0.4 1.3,-0.3 2.5,-0.8 3.6,-1.4 3.3,-1.5 6.2,-3.5 8.8,-6 0.5,-0.5 1.1,-0.9 1.7,-1.2 0.5,-0.3 1,-0.5 1.5,-0.1 0.5,0.5 0.4,1 0.2,1.6 -0.8,1.8 -2.1,3.3 -3.6,4.6 -4.3,3.8 -9.3,6.3 -15.1,7.1 -2.1,0.3 -4.3,0.2 -6.3,-0.4 -2.3,-0.7 -3.6,-2.3 -4,-4.6 -0.1,-0.6 -0.3,-1.1 -1,-1.2 -0.6,-0.1 -1.2,-0.2 -1.7,-0.5 -1.8,-0.9 -3.6,-0.5 -5.3,0.3 -1.6,0.7 -3.2,1.2 -4.8,1.8 -1.3,0.4 -2.5,0.1 -3.3,-0.9 -0.7,-0.9 -0.6,-1.7 0.3,-2.3 1.3,-0.9 2.7,-1.5 4.1,-2.3 0.4,-0.2 0.8,-0.4 1.2,-0.6 0.6,-0.3 0.6,-0.7 0,-1 -0.2,-0.1 -0.5,-0.2 -0.7,-0.3 -1.4,-0.3 -2.7,-0.7 -4.1,-1 -0.5,-0.1 -1,-0.1 -1.5,0.2 -1.4,0.7 -2.9,1.4 -4.3,2.1 -0.8,0.4 -1.5,0.9 -2.1,1.7 -0.4,0.5 -0.8,1 -1.5,0.8 -0.7,-0.2 -0.8,-0.7 -1,-1.3 -0.3,-1.1 -1,-1.9 -1.7,-2.7 -1.1,-1.1 -2.3,-2.1 -3.3,-3.3 -0.7,-0.8 -0.8,-1.5 -0.3,-2.1 0.5,-0.6 1.3,-0.8 2.2,-0.4 0.8,0.3 1.4,1 2.1,1.6 1.1,0.9 2.1,1.8 3.1,2.7 0.3,0.3 0.6,0.3 0.9,0 0.7,-0.8 1.4,-1.5 2.2,-2.2 0.5,-0.4 0.4,-0.7 0,-1.1 -1.2,-1.3 -2.2,-2.6 -3.2,-4 -0.3,-0.4 -0.7,-1 -0.4,-1.4 0.3,-0.5 1,-0.2 1.6,-0.1 1.9,0.6 3.7,1.4 5.4,2.3 2.2,1 4.6,1.3 7,1.2 3.1,0 6.1,-1 9,-2.1 0.8,-0.3 1.6,-0.6 2.4,-0.8 2.2,-0.6 4.5,1 4.6,3.2 0.1,2 -0.3,3.8 -1.9,5.2 -0.8,0.7 -1.7,0.7 -2.6,0.7 -0.4,0 -0.6,-0.3 -0.6,-0.7 -0.1,-0.5 -0.1,-1.1 -0.1,-1.6 0,-1.3 -0.5,-1.7 -1.7,-1.4 -1.8,0.4 -3.6,1 -5.5,1.3 -0.4,-0.2 -0.8,-0.3 -1.2,-0.1 z"
   id="path8-6"
   style="fill:#038249" />
&#10;			<path
   class="st9"
   d="m -46.5,401.2 c -2,-1 -3.9,-2 -5.8,-2.9 -0.4,-0.2 -0.4,-0.6 -0.3,-1 0.1,-2.8 0.2,-5.7 0.3,-8.5 0,-1 0,-1.9 0.1,-2.9 0.1,-0.4 -0.2,-0.7 -0.5,-0.8 -0.8,-0.4 -1.6,-0.8 -2.4,-1.2 -0.5,-0.3 -0.8,-0.2 -1,0.3 -1.5,3 -3,5.9 -4.5,8.9 -0.3,0.6 -0.5,0.8 -1.2,0.4 -1.3,-0.7 -2.7,-1.4 -4.1,-2 -0.6,-0.3 -0.6,-0.6 -0.3,-1.1 3.6,-7.1 7.2,-14.2 10.8,-21.3 0.6,-1.1 1.1,-2.2 1.7,-3.3 0.2,-0.4 0.4,-0.6 0.9,-0.3 3.4,1.8 6.9,3.4 10.4,5.3 2.6,1.4 4.5,3.4 5,6.5 0.8,5 -3.1,9.8 -8.1,9.8 -0.7,0 -0.8,0.2 -0.8,0.9 0,4 0,8 -0.1,12 -0.1,0.2 -0.1,0.6 -0.1,1.2 z m -0.3,-19.7 c 1.5,0 2.5,-0.8 3.1,-2.5 0.5,-1.5 0.1,-2.7 -1.1,-3.6 -1.5,-1.1 -3.3,-1.8 -4.9,-2.7 -0.3,-0.2 -0.5,0 -0.6,0.3 -0.9,1.8 -1.8,3.5 -2.7,5.2 -0.2,0.5 -0.2,0.7 0.3,0.9 1.2,0.6 2.3,1.2 3.5,1.7 0.6,0.4 1.4,0.8 2.4,0.7 z"
   id="path9-0"
   style="fill:#bf3718" />
&#10;			<path
   class="st9"
   d="m -124.9,377.2 c 0.1,3.2 -0.6,5.9 -2.5,8.3 -1.9,2.4 -4.6,3.6 -7.6,4.1 -5.9,1.1 -10.5,-1.8 -12.9,-7 -1.5,-3.2 -2.3,-6.6 -2.4,-10.2 -0.3,-6.1 3.1,-10.7 9,-12.1 3.1,-0.8 6.2,-0.7 9,1 2.5,1.5 4,3.7 5.2,6.4 1.4,3.2 2.2,6.6 2.2,9.5 z m -6,0.9 c -0.2,-3.5 -0.9,-6.8 -2.6,-9.8 -1.4,-2.5 -3.3,-3.5 -5.8,-3.1 -2.9,0.5 -4.5,2.2 -4.8,5.2 -0.1,1.3 0,2.6 0.2,3.8 0.5,2.8 1.2,5.5 2.9,7.9 1.4,1.9 3.2,2.6 5.5,2.1 2.3,-0.5 3.9,-1.8 4.3,-4.2 0.2,-0.6 0.2,-1.3 0.3,-1.9 z"
   id="path10"
   style="fill:#bf3718" />
&#10;			<path
   class="st9"
   d="m -111.9,367.7 c 1.2,-1.7 2.4,-3.4 3.6,-5.1 1.5,-2.1 2.9,-4.1 4.4,-6.2 0.3,-0.4 0.6,-0.6 1,-0.6 2.1,0 4.3,0 6.4,0 -1.1,1.5 -2.3,3.2 -3.4,4.9 -1.3,1.9 -2.6,3.8 -4,5.6 -0.3,0.5 -0.3,0.8 -0.1,1.3 3.2,5.3 6.3,10.6 9.4,15.9 0.1,0.2 0.2,0.4 0.3,0.6 0.2,0.4 0.1,0.5 -0.3,0.6 -2.1,0.1 -4.1,0.1 -6.2,0.2 -0.4,0 -0.5,-0.3 -0.6,-0.5 -2.2,-3.8 -4.3,-7.7 -6.5,-11.5 -0.5,-0.9 -0.5,-0.9 -1.1,-0.1 -0.4,0.6 -0.8,1.2 -1.3,1.7 -1.6,1.4 -1.6,3.2 -1.4,5.2 0.1,1.7 0.1,3.5 0.2,5.2 0,0.4 -0.1,0.4 -0.4,0.4 -1.7,0 -3.4,0.1 -5.1,0.2 -0.4,0 -0.6,-0.1 -0.6,-0.6 -0.1,-3.3 -0.2,-6.6 -0.3,-9.8 -0.2,-4.8 -0.3,-9.7 -0.5,-14.5 0,-1.2 -0.1,-2.4 -0.1,-3.5 0,-0.4 0.1,-0.7 0.6,-0.7 1.6,0 3.1,-0.1 4.7,-0.2 0.6,0 0.9,0.2 0.9,0.8 0.1,3.1 0.2,6.1 0.3,9.2 -0.1,0.4 -0.1,0.9 0.1,1.5 z"
   id="path11"
   style="fill:#bf3718" />
&#10;			<path
   class="st9"
   d="m -65.3,361.2 c -0.3,1.6 -0.6,3 -0.9,4.4 -0.1,0.6 -0.4,0.4 -0.8,0.3 -2.8,-0.6 -5.6,-1.2 -8.4,-1.8 -1.1,-0.2 -2.2,-0.4 -3.3,-0.7 -0.5,-0.1 -0.8,0 -0.9,0.5 -0.3,1.5 -0.6,3.1 -1,4.6 -0.1,0.5 0.1,0.7 0.5,0.8 2.7,0.5 5.3,1.1 8,1.7 0.6,0.1 0.9,0.3 0.7,1 -0.3,1.2 -0.6,2.5 -0.8,3.7 -0.1,0.5 -0.3,0.6 -0.8,0.5 -2.6,-0.6 -5.2,-1.1 -7.7,-1.6 -1.1,-0.2 -1.1,-0.2 -1.4,0.9 -0.4,1.8 -0.7,3.6 -1.1,5.3 -0.1,0.5 0,0.7 0.6,0.8 4,0.8 8,1.7 11.9,2.5 0.7,0.1 0.9,0.3 0.7,1.1 -0.3,1.2 -0.5,2.4 -0.8,3.6 -0.1,0.5 -0.2,0.6 -0.8,0.5 -6.1,-1.3 -12.2,-2.6 -18.3,-3.8 -0.6,-0.1 -0.6,-0.3 -0.5,-0.9 1.6,-7.4 3.1,-14.9 4.7,-22.3 0.3,-1.6 0.7,-3.1 1,-4.7 0.1,-0.7 0.4,-0.8 1,-0.6 5.9,1.2 11.7,2.5 17.6,3.7 0.5,0.2 0.9,0.1 0.8,0.5 z"
   id="path12"
   style="fill:#bf3718" />
&#10;			<path
   class="st8"
   d="m -60.5,469.9 c -0.3,-2.1 -1.2,-4 -2.1,-5.7 -0.6,-1.2 -1.3,-2.3 -1.8,-3.5 -0.8,-1.8 -0.4,-2.7 1.5,-3.3 0.7,-0.2 1.7,-0.2 2.1,-0.7 0.4,-0.5 -0.1,-1.4 0,-2.1 0,-0.5 0,-1 0.1,-1.5 0.2,-1.4 1,-1.7 2.2,-0.9 1.6,1.1 2.4,2.7 2.9,4.5 0.8,3.1 0.4,6.1 -0.1,9.2 -0.4,2.3 -0.7,4.6 -1.2,6.9 -0.5,2.3 0.1,4.1 1.6,5.8 0.6,0.7 1.2,1.4 1.7,2.2 0.5,1 0.3,1.6 -0.7,2.2 -0.8,0.4 -1.6,0.7 -2.4,0.9 -1.7,0.4 -2.7,1.6 -3.5,3 -2.4,4.4 -4.8,9 -7.5,13.3 -1.4,2.2 -3.1,4.3 -5.1,6 -0.8,0.6 -1.6,1.1 -2.6,1.2 -0.7,0.1 -1.5,0.1 -1.9,-0.5 -0.5,-0.7 0,-1.3 0.4,-1.9 1,-1.5 2.1,-3 3.1,-4.5 3.3,-5 6.4,-10 9.2,-15.3 1.7,-3.2 1.8,-6.6 1,-10 -0.5,-2 -0.9,-4.1 -1.4,-6.2 -0.1,-0.4 -0.2,-0.7 0.1,-1 0.4,-0.3 0.7,0 1,0.1 0.9,0.6 2.1,1.2 3.4,1.8 z"
   id="path13"
   style="fill:#038249" />
&#10;			<path
   class="st8"
   d="m -74.2,485.2 c 0.8,-1.1 1.6,-2 2.3,-3 0.4,-0.4 0.7,-0.8 1.2,-1.2 0.7,-0.6 1.3,-0.4 1.6,0.4 0.4,1 0.3,2.1 -0.1,3 -2.7,6.6 -7,11.7 -13.8,14.3 -1,0.4 -2.1,0.8 -3.1,1.2 -0.7,0.2 -1.1,0.6 -1.4,1.3 -0.6,1.7 -1.7,3.1 -3.3,4.1 -0.6,0.4 -1.3,0.7 -2,0.3 -0.7,-0.4 -0.7,-1.2 -0.6,-1.9 0.1,-0.6 0.2,-1.2 0.4,-1.7 0.9,-2.3 1.3,-4.7 1.1,-7.2 -0.2,-4.3 0.9,-8.2 3.6,-11.5 0.5,-0.6 1,-1.2 2,-1 0.8,0.2 1.5,0.6 1.7,1.5 0.2,0.5 -0.1,1.1 -0.2,1.6 -0.3,1.5 -0.9,2.9 -1.5,4.3 -0.9,2.1 -0.8,4.2 -0.8,6.4 0,0.5 0.2,0.5 0.6,0.3 2.2,-0.8 4.1,-2.1 5.9,-3.7 0.7,-0.7 1.4,-1.4 2.1,-2 0.5,-0.5 0.6,-1 0.3,-1.6 -2.1,-4 -1.6,-7.9 0.5,-11.6 1,-1.8 2.1,-3.6 3.6,-5 0.9,-0.9 1.9,-1.8 3.3,-2.1 0.7,-0.1 1.4,-0.1 1.8,0.6 0.4,0.6 0.3,1.2 -0.1,1.8 -1.1,1.9 -2.6,3.4 -4,5.1 -0.9,1.1 -1.8,2.3 -1.9,3.9 0,1.2 0.3,2.2 0.8,3.4 z"
   id="path14"
   style="fill:#038249" />
&#10;			<path
   class="st9"
   d="m -152.9,390.8 c -0.1,3 -1.7,4.9 -4.2,6.3 -2.9,1.5 -5.7,1.4 -8.5,-0.2 -0.5,-0.3 -0.7,-0.5 -0.3,-1.1 0.7,-1.1 1.4,-2.3 2,-3.5 0.2,-0.4 0.4,-0.5 0.9,-0.2 0.6,0.4 1.2,0.8 2,0.8 1.4,-0.1 2.2,-1 1.9,-2.4 -0.4,-1.5 -1.1,-2.8 -1.7,-4.2 -2.2,-5.3 -4.5,-10.6 -6.8,-15.9 -0.2,-0.6 -0.2,-0.8 0.4,-1.1 1.4,-0.6 2.8,-1.2 4.3,-1.8 0.5,-0.2 0.8,-0.2 1,0.4 2.7,6.4 5.5,12.8 8.2,19.2 0.5,1.2 0.9,2.4 0.8,3.7 z"
   id="path15"
   style="fill:#bf3718" />
&#10;			<path
   class="st8"
   d="m -89.5,403.7 c 0,0.6 -0.1,1.3 0.2,2 0.6,1.5 1.7,1.6 2.6,0.4 0.9,-1.3 1.9,-2.5 2.8,-3.8 1.2,-1.8 2.5,-3.5 3.9,-5.1 1.3,-1.5 3,-1.5 3.8,0 0.4,0.7 0.5,1.5 0.4,2.4 -0.3,2.4 -1.8,4.2 -3.3,5.9 -1.7,2.1 -3.8,3.9 -5.7,5.8 -2.1,2.1 -4,4.4 -5.4,7 -0.8,1.5 -2,2.8 -3.1,4.1 -0.4,0.5 -0.9,0.8 -1.5,1 -0.9,0.3 -1.2,0.1 -1.1,-0.9 0.3,-1.5 0.8,-3 1.2,-4.5 1,-3.5 0.9,-7.1 0.9,-10.7 0,-2 -0.1,-4.2 1.2,-5.9 0.5,-0.7 1.2,-1.1 2,-0.8 0.8,0.3 1.1,1 1.1,1.8 0,0.4 0,0.8 0,1.3 z"
   id="path16"
   style="fill:#038249" />
&#10;			<path
   class="st8"
   d="m -86.6,425.1 c -0.5,-0.1 -1,-0.1 -1.4,-0.2 -0.7,-0.2 -0.9,-0.7 -0.5,-1.3 0.5,-0.7 1.1,-1.4 1.7,-2.1 1.2,-1.4 1.8,-3 2.3,-4.7 0.1,-0.5 0.3,-1 0.4,-1.5 0.3,-1.2 1.1,-1.9 2.2,-2.3 2.1,-0.7 4.2,-1.3 6.2,-2.2 3.2,-1.5 6,-3.5 8.5,-6 0.9,-0.9 1.9,-1.9 2.8,-2.8 1.1,-1.1 2.7,-0.9 3.5,0.4 0.7,1.1 0.6,2.2 0.2,3.4 -0.7,2 -2.2,3.4 -3.7,4.8 -2.6,2.2 -5.6,3.7 -8.6,5.3 -1.3,0.7 -2.6,1.4 -3.9,2.1 -1.6,0.9 -3,2.1 -4.1,3.6 -1.3,1.8 -2.9,3.2 -5.2,3.5 -0.1,0 -0.3,0 -0.4,0 z"
   id="path17"
   style="fill:#038249" />
&#10;			<path
   class="st8"
   d="m -105,423.2 c 0,0.4 -0.3,0.7 -0.6,1.1 -2.4,2.3 -5.2,3.7 -8.4,4.6 -1.5,0.5 -3.1,0.7 -4.7,1 -2.2,0.4 -3.9,1.6 -5,3.5 -1,1.7 -2,3.5 -2.9,5.2 -0.9,1.6 -1.9,3 -3.2,4.3 -2,2 -3.2,4.4 -4.5,6.9 -0.3,0.5 -0.6,1 -1,1.4 -0.5,0.4 -0.9,0.5 -1.3,-0.2 -0.4,-0.7 -0.6,-1.4 -0.3,-2.2 1,-2.9 2.1,-5.8 3.8,-8.4 0.7,-1.1 1.6,-2.2 2.5,-3.1 2.4,-2.4 3.6,-5.5 4.8,-8.6 0.3,-0.7 0.6,-1.4 0.9,-2.1 0.4,-0.9 1.2,-1.4 2.1,-1.4 3.7,0.3 7,-0.8 10.5,-1.8 1.7,-0.5 3.4,-0.8 5.1,-1.2 0.6,-0.1 1.1,0 1.7,0.1 0.4,0.1 0.5,0.4 0.5,0.9 z"
   id="path18"
   style="fill:#038249" />
&#10;			<path
   class="st8"
   d="m -100.7,445.5 c 0,4.6 -3.3,8.3 -8.1,8.3 -4.8,0 -8.3,-3.6 -8.2,-8.4 0.1,-4.4 3.4,-8 8.2,-8 5.2,0 8.2,4.2 8.1,8.1 z m -8.1,-4.3 c -2.3,0 -4.4,2 -4.4,4.3 0,2.4 1.9,4.4 4.4,4.4 2.3,0 4.3,-2 4.3,-4.3 0,-2.3 -2,-4.4 -4.3,-4.4 z"
   id="path19"
   style="fill:#038249" />
&#10;			<path
   class="st8"
   d="m -85.7,433.1 c -0.5,0.7 -1,1.4 -1.5,2 -0.9,1.1 -1.9,1.5 -2.8,1 -1,-0.5 -1.5,-1.8 -1.1,-3.1 1.1,-3.7 6,-7.7 11.1,-6.2 1.4,0.4 1.8,1.1 1.4,2.5 -1.1,3.6 -2.8,6.9 -5.2,9.8 -0.4,0.5 -0.8,0.9 -1.4,0.9 -1.2,0.2 -1.9,-0.5 -1.6,-1.8 0.4,-1.4 0.8,-2.8 1.2,-4.2 0,-0.3 0.2,-0.6 -0.1,-0.9 z"
   id="path20"
   style="fill:#038249" />
&#10;			<path
   class="st8"
   d="m -79.1,438 c 0,-1.5 1,-2.3 2.2,-1.6 2.4,1.2 4.5,1 6.8,-0.3 1.2,-0.7 2.4,-1.3 3.7,-1.7 0.7,-0.2 1.4,-0.3 1.9,0.4 0.4,0.6 0.4,1.4 -0.3,2.1 -0.9,1 -1.9,2 -2.9,3 -0.8,0.8 -0.8,1.3 -0.1,2.1 0.9,1.1 1.8,2.1 2.5,3.3 0.4,0.6 0.6,1.3 0.1,1.9 -0.5,0.6 -1.3,0.7 -2.1,0.4 -2.2,-0.8 -3.9,-2.4 -5.8,-3.7 -1.1,-0.7 -2.1,-1.5 -3.2,-2.3 -1.1,-0.7 -1.8,-1.7 -2.6,-2.7 -0.1,-0.3 -0.2,-0.6 -0.2,-0.9 z"
   id="path21"
   style="fill:#038249" />
&#10;			<path
   class="st8"
   d="m -139.8,496.1 c -0.3,2.2 -1.4,3.7 -4,2.6 -1.5,-0.6 -2.7,-1.5 -3.7,-2.8 -1.8,-2.2 -3.4,-4.5 -5,-6.9 -0.9,-1.4 -0.1,-3.1 1.6,-3.3 0.4,0 0.8,0 1.1,0.2 3.9,1.5 7,4.1 9.2,7.6 0.5,0.8 0.7,1.7 0.8,2.6 z"
   id="path22"
   style="fill:#038249" />
&#10;			<path
   class="st8"
   d="m -74.1,428.3 c -1.3,0 -2.3,-0.6 -2.6,-1.4 -0.3,-0.8 0,-1.5 0.6,-2.1 3,-3.3 6.3,-6.3 9.7,-9.2 0.9,-0.8 1.9,-1.4 3.1,-1.1 1.2,0.3 1.7,1.2 1,2.3 -1,1.8 -2.3,3.3 -3.7,4.8 -1.8,1.9 -3.6,3.8 -5.8,5.4 -0.7,0.7 -1.6,1.2 -2.3,1.3 z"
   id="path23"
   style="fill:#038249" />
&#10;			<path
   class="st8"
   d="m -68.2,433.6 c -0.7,-0.1 -1.2,-0.4 -1.5,-1 -0.3,-0.6 -0.3,-1.3 0.1,-1.8 1.3,-1.6 2.6,-3.2 4.2,-4.6 1.7,-1.6 3.4,-3.2 5.1,-4.8 0.6,-0.5 1.3,-1.1 2.2,-0.9 1.5,0.4 2.1,1.8 1.3,3.1 -1.3,2.1 -3.2,3.7 -5,5.5 -1.2,1.2 -2.3,2.3 -3.7,3.3 -0.8,0.5 -1.7,1 -2.7,1.2 z"
   id="path24"
   style="fill:#038249" />
&#10;			<path
   class="st8"
   d="m -101.6,433.6 c 1.3,-0.1 2.5,0.4 3.4,1.2 0.8,0.7 1.7,0.8 2.7,0.6 0.9,-0.2 1.7,-0.4 2.6,-0.4 0.9,0 1.3,0.3 1.1,1.2 -0.4,2 -1.7,3.2 -3.4,4 -2.9,1.3 -5.4,0.2 -7.6,-1.8 -0.4,-0.4 -0.8,-0.9 -1.1,-1.3 -1.1,-1.5 -0.3,-3.2 1.6,-3.4 0.2,-0.1 0.5,-0.1 0.7,-0.1 z"
   id="path25"
   style="fill:#038249" />
&#10;			<path
   class="st8"
   d="m -98.6,489.1 c 0.9,0.1 1.9,0.2 2.8,0.6 1.8,0.8 2.3,3.5 1,4.9 -0.4,0.4 -0.8,0.6 -1.3,0.4 -1.5,-0.7 -3.1,-0.9 -4.7,-1 -1.3,-0.1 -2.6,-0.4 -3.8,-0.9 -0.6,-0.2 -1.1,-0.5 -1.2,-1.2 -0.1,-0.8 0.4,-1.2 0.9,-1.6 1,-0.7 2.1,-0.8 3.3,-0.9 0.9,-0.2 2,-0.2 3,-0.3 z"
   id="path26"
   style="fill:#038249" />
&#10;			<path
   class="st8"
   d="m -106.8,445.1 c 0,1.4 -1,2.4 -2.4,2.4 -1.3,0 -2.3,-1 -2.3,-2.3 0,-1.4 1,-2.5 2.4,-2.4 1.3,0 2.3,1 2.3,2.3 z"
   id="path27"
   style="fill:#038249" />
&#10;		</g>
    </g>
  </g>
</svg>
